<?xml version="1.0" encoding="UTF-8" standalone="no"?>
<!-- Created with Inkscape (http://www.inkscape.org/) -->

<svg
   width="104.77146mm"
   height="31.75mm"
   viewBox="0 0 104.77146 31.75"
   version="1.1"
   id="svg1"
   sodipodi:docname="earthkit-dark.svg"
   inkscape:version="1.3 (0e150ed, 2023-07-21)"
   xmlns:inkscape="http://www.inkscape.org/namespaces/inkscape"
   xmlns:sodipodi="http://sodipodi.sourceforge.net/DTD/sodipodi-0.dtd"
   xmlns="http://www.w3.org/2000/svg"
   xmlns:svg="http://www.w3.org/2000/svg">
  <sodipodi:namedview
     id="namedview1"
     pagecolor="#ffffff"
     bordercolor="#000000"
     borderopacity="0.25"
     inkscape:showpageshadow="2"
     inkscape:pageopacity="0.0"
     inkscape:pagecheckerboard="0"
     inkscape:deskcolor="#d1d1d1"
     inkscape:document-units="mm"
     inkscape:zoom="3.3638608"
     inkscape:cx="236.63286"
     inkscape:cy="26.309055"
     inkscape:window-width="1472"
     inkscape:window-height="916"
     inkscape:window-x="1451"
     inkscape:window-y="252"
     inkscape:window-maximized="0"
     inkscape:current-layer="layer1" />
  <defs
     id="defs1">
    <rect
       x="297.27747"
       y="98.696114"
       width="252.09129"
       height="79.670357"
       id="rect12" />
  </defs>
  <g
     inkscape:label="Layer 1"
     inkscape:groupmode="layer"
     id="layer1"
     transform="translate(-30.975453,-17.719192)">
    <path
       style="font-size:53.3131px;font-family:'Varela Round';-inkscape-font-specification:'Varela Round';white-space:pre;shape-padding:4.75644;fill:#f9f9f9;stroke:#f9f9f9;stroke-width:2.29971;stroke-linecap:round;stroke-linejoin:round;fill-opacity:1;stroke-opacity:1"
       d="m 318.40032,152.02784 q -6.50419,0 -10.1828,-3.6786 -3.62529,-3.73192 -3.62529,-10.44937 0,-3.62529 1.33283,-6.82408 1.33283,-3.2521 4.15842,-5.27799 2.8256,-2.0259 7.25058,-2.0259 4.10511,0 6.93071,1.91927 2.82559,1.86596 4.26504,4.90481 1.49277,3.03884 1.49277,6.61082 0,1.01295 -0.69307,1.70602 -0.63976,0.69307 -1.75933,0.69307 h -18.07314 q 0.4265,3.57198 2.71897,5.75781 2.29246,2.13253 6.61082,2.13253 2.39909,0 4.05179,-0.42651 1.65271,-0.47981 3.14548,-1.2262 0.4265,-0.21325 0.95963,-0.21325 0.85301,0 1.49277,0.58644 0.63976,0.58645 0.63976,1.49277 0,0.63976 -0.42651,1.17289 -0.37319,0.47982 -0.95963,0.7997 -1.75934,1.01294 -3.83855,1.70601 -2.02589,0.63976 -5.49125,0.63976 z m -8.90328,-16.36712 h 15.72736 q -0.15994,-2.77228 -1.43945,-4.4783 -1.2262,-1.70602 -2.98554,-2.50572 -1.75933,-0.79969 -3.46535,-0.79969 -1.70602,0 -3.46535,0.79969 -1.75933,0.7997 -2.98553,2.50572 -1.2262,1.70602 -1.38614,4.4783 z m 33.85381,16.36712 q -2.29246,0 -4.31836,-0.95963 -1.97258,-0.95964 -3.19878,-2.71897 -1.17289,-1.81265 -1.17289,-4.31836 0,-3.78523 2.98553,-6.18432 3.03885,-2.45241 9.27648,-2.45241 h 6.45089 v -0.4265 q 0,-3.57198 -1.75934,-5.06474 -1.75933,-1.54608 -5.38462,-1.54608 -2.23915,0 -3.94517,0.4265 -1.6527,0.37319 -3.14547,0.85301 -0.42651,0.10663 -0.69307,0.10663 -0.7997,0 -1.38614,-0.58645 -0.58645,-0.58644 -0.58645,-1.43945 0,-1.43945 1.38614,-2.0259 1.86596,-0.7997 4.10511,-1.33283 2.29247,-0.58644 5.11806,-0.58644 3.89186,0 6.34426,1.54608 2.4524,1.54608 3.62529,3.94517 1.17289,2.39909 1.17289,5.01143 v 15.08761 q 0,1.01295 -0.74639,1.70602 -0.69307,0.69307 -1.70601,0.69307 -1.01295,0 -1.70602,-0.69307 -0.69307,-0.69307 -0.69307,-1.70602 v -1.38614 q -1.43946,1.49276 -3.83855,2.77228 -2.39909,1.27951 -6.18432,1.27951 z m 1.81265,-4.26505 q 2.50571,0 4.69155,-1.2262 2.18584,-1.2262 3.51867,-2.77228 v -4.4783 h -5.81113 q -3.73192,0 -5.91776,0.95964 -2.13252,0.95963 -2.13252,3.2521 0,1.70602 1.17289,2.98553 1.2262,1.27951 4.4783,1.27951 z m 23.61761,3.99849 q -1.01295,0 -1.70602,-0.69307 -0.69307,-0.69307 -0.69307,-1.70602 v -22.87132 q 0,-1.01295 0.69307,-1.70602 0.69307,-0.74639 1.70602,-0.74639 1.01295,0 1.70602,0.74639 0.74638,0.69307 0.74638,1.70602 v 2.29246 q 1.43946,-1.91927 3.51867,-3.46535 2.07921,-1.54608 4.85149,-1.54608 h 0.26657 q 1.01295,0 1.6527,0.69307 0.69307,0.69307 0.69307,1.70602 0,1.01295 -0.69307,1.6527 -0.69307,0.63976 -1.75933,0.63976 h -0.26656 q -2.61235,0 -4.74487,1.33283 -2.13252,1.27951 -3.51867,3.35872 v 16.20719 q 0,1.01295 -0.74638,1.70602 -0.69307,0.69307 -1.70602,0.69307 z m 27.4029,0.26656 q -0.95963,0 -2.29246,-0.21325 -1.27952,-0.15994 -2.55903,-0.7997 -1.2262,-0.69307 -2.07921,-2.13252 -0.85301,-1.43945 -0.85301,-3.89186 v -16.52706 h -3.78523 q -1.01295,0 -1.01295,-1.01295 0,-0.53313 0.47982,-0.90632 l 7.25058,-7.09064 q 0.10663,-0.10663 0.31988,-0.26657 0.26656,-0.21325 0.58644,-0.21325 0.42651,0 0.69307,0.31988 0.31988,0.31988 0.31988,0.74638 v 4.26505 h 6.02438 q 0.90633,0 1.49277,0.58644 0.58644,0.58645 0.58644,1.49277 0,0.85301 -0.58644,1.49277 -0.58644,0.58644 -1.49277,0.58644 h -6.02438 v 16.10056 q 0,1.54608 0.58645,2.23915 0.58644,0.69307 1.38614,0.85301 0.85301,0.10662 1.49276,0.10662 1.27952,0 1.86596,-0.21325 0.63976,-0.26656 1.33283,-0.26656 0.74638,0 1.33283,0.53313 0.58644,0.53313 0.58644,1.38614 0,1.2262 -1.2262,1.86596 -0.95964,0.4265 -2.07921,0.69307 -1.06626,0.26656 -2.34578,0.26656 z m 13.38159,-0.26656 q -1.01294,0 -1.70601,-0.69307 -0.69307,-0.69307 -0.69307,-1.70602 v -34.6002 q 0,-1.06627 0.69307,-1.75934 0.69307,-0.69307 1.70601,-0.69307 1.01295,0 1.70602,0.69307 0.74639,0.69307 0.74639,1.75934 v 13.91471 q 1.70602,-1.86595 3.99848,-3.35872 2.34578,-1.54608 5.91775,-1.54608 3.03885,0 5.17137,1.43945 2.13253,1.38614 3.2521,3.78523 1.11958,2.34578 1.11958,5.22469 v 15.14092 q 0,1.01295 -0.74638,1.70602 -0.69308,0.69307 -1.70602,0.69307 -1.01295,0 -1.70602,-0.69307 -0.69307,-0.69307 -0.69307,-1.70602 V 134.7544 q 0,-3.03885 -1.38614,-4.74487 -1.33283,-1.75933 -4.4783,-1.75933 -2.87891,0 -5.01144,1.54608 -2.13252,1.54608 -3.73191,3.57198 v 15.99393 q 0,1.01295 -0.74639,1.70602 -0.69307,0.69307 -1.70602,0.69307 z m 32.46763,0 q -1.01295,0 -1.70602,-0.69307 -0.69307,-0.69307 -0.69307,-1.70602 v -34.6002 q 0,-1.01295 0.69307,-1.70602 0.69307,-0.74639 1.70602,-0.74639 1.01295,0 1.70602,0.74639 0.74639,0.69307 0.74639,1.70602 v 21.80505 l 12.68851,-11.72888 q 0.31988,-0.26656 0.69307,-0.47982 0.42651,-0.21325 0.90633,-0.21325 1.38614,0 1.86595,0.7997 0.47982,0.74638 0.47982,1.54608 0,0.31988 -0.15994,0.79969 -0.15994,0.42651 -0.74638,1.01295 l -7.67709,6.87739 9.64967,12.79515 q 0.53314,0.69307 0.53314,1.43945 0,1.06626 -0.69307,1.70602 -0.69307,0.63976 -1.75934,0.63976 -1.11957,0 -1.97258,-1.01295 l -9.16985,-12.47527 -4.63824,4.21174 v 6.87739 q 0,1.01295 -0.74639,1.70602 -0.69307,0.69307 -1.70602,0.69307 z m 28.94892,-33.00081 q -1.11958,0 -1.91927,-0.7997 -0.7997,-0.79969 -0.7997,-1.91927 v -0.21325 q 0,-1.11958 0.7997,-1.91927 0.79969,-0.7997 1.91927,-0.7997 h 0.31988 q 1.11957,0 1.91927,0.7997 0.7997,0.79969 0.7997,1.91927 v 0.21325 q 0,1.11958 -0.7997,1.91927 -0.7997,0.7997 -1.91927,0.7997 z m 0.10663,33.00081 q -1.01295,0 -1.70602,-0.69307 -0.69307,-0.69307 -0.69307,-1.70602 v -22.87132 q 0,-1.06626 0.69307,-1.75933 0.69307,-0.69308 1.70602,-0.69308 1.06626,0 1.75933,0.69308 0.69307,0.69307 0.69307,1.75933 v 22.87132 q 0,1.01295 -0.69307,1.70602 -0.69307,0.69307 -1.75933,0.69307 z m 20.2589,0.26656 q -0.95964,0 -2.29246,-0.21325 -1.27952,-0.15994 -2.55903,-0.7997 -1.2262,-0.69307 -2.07921,-2.13252 -0.85301,-1.43945 -0.85301,-3.89186 v -16.52706 h -3.78523 q -1.01295,0 -1.01295,-1.01295 0,-0.53313 0.47981,-0.90632 l 7.25059,-7.09064 q 0.10662,-0.10663 0.31987,-0.26657 0.26657,-0.21325 0.58645,-0.21325 0.4265,0 0.69307,0.31988 0.31988,0.31988 0.31988,0.74638 v 4.26505 h 6.02438 q 0.90632,0 1.49276,0.58644 0.58645,0.58645 0.58645,1.49277 0,0.85301 -0.58645,1.49277 -0.58644,0.58644 -1.49276,0.58644 h -6.02438 v 16.10056 q 0,1.54608 0.58644,2.23915 0.58645,0.69307 1.38614,0.85301 0.85301,0.10662 1.49277,0.10662 1.27951,0 1.86596,-0.21325 0.63975,-0.26656 1.33283,-0.26656 0.74638,0 1.33282,0.53313 0.58645,0.53313 0.58645,1.38614 0,1.2262 -1.2262,1.86596 -0.95964,0.4265 -2.07922,0.69307 -1.06626,0.26656 -2.34577,0.26656 z"
       id="text12"
       transform="matrix(0.30438605,0,0,0.30438605,-15.886308,-6.4520392)"
       aria-label="earthkit" />
  </g>
  <g
     inkscape:groupmode="layer"
     id="layer2"
     inkscape:label="Layer 2"
     transform="translate(-30.975453,-17.719192)">
    <g
       id="g12"
       style="stroke-width:2;stroke-dasharray:none">
      <g
         id="g11"
         style="stroke:#c2dcff;stroke-width:2;stroke-dasharray:none;stroke-opacity:1">
        <path
           d="m 58.642415,23.159827 a 14.233227,14.233227 0 0 1 0.02377,0.01964 14.233227,14.233227 0 0 1 0.535367,0.483174 14.233227,14.233227 0 0 1 0.50953,0.510047 14.233227,14.233227 0 0 1 0.483691,0.534851 14.233227,14.233227 0 0 1 0.455787,0.559139 14.233227,14.233227 0 0 1 0.426847,0.58136 14.233227,14.233227 0 0 1 0.396875,0.60203 14.233227,14.233227 0 0 1 0.365869,0.621151 14.233227,14.233227 0 0 1 0.33383,0.639237 14.233227,14.233227 0 0 1 0.300757,0.655257 14.233227,14.233227 0 0 1 0.267684,0.669727 14.233227,14.233227 0 0 1 0.23306,0.682646 14.233227,14.233227 0 0 1 0.198438,0.692981 14.233227,14.233227 0 0 1 0.163297,0.702799 14.233227,14.233227 0 0 1 0.127124,0.709518 14.233227,14.233227 0 0 1 0.09095,0.715718 14.233227,14.233227 0 0 1 0.05478,0.718819 14.233227,14.233227 0 0 1 0.01809,0.720887 14.233227,14.233227 0 0 1 -0.144694,2.025716 14.233227,14.233227 0 0 1 -0.431499,1.984375 14.233227,14.233227 0 0 1 -0.710034,1.902726 14.233227,14.233227 0 0 1 -0.973067,1.78232 14.233227,14.233227 0 0 1 -1.21698,1.625741 14.233227,14.233227 0 0 1 -1.436088,1.436088 14.233227,14.233227 0 0 1 -0.187069,0.140043 l 2.83962,3.388423 a 18.639271,18.639271 0 0 0 1.67535,-1.591634 18.639271,18.639271 0 0 0 1.46606,-1.785937 18.639271,18.639271 0 0 0 1.233517,-1.954403 18.639271,18.639271 0 0 0 0.981852,-2.091345 18.639271,18.639271 0 0 0 0.716235,-2.197282 18.639271,18.639271 0 0 0 0.438217,-2.269112 18.639271,18.639271 0 0 0 0.154512,-2.305286 18.639271,18.639271 0 0 0 -0.0026,-0.404626 18.639271,18.639271 0 0 0 -0.01085,-0.404627 18.639271,18.639271 0 0 0 -0.02015,-0.404109 18.639271,18.639271 0 0 0 -0.02894,-0.403593 18.639271,18.639271 0 0 0 -0.03721,-0.403076 18.639271,18.639271 0 0 0 -0.04651,-0.402043 18.639271,18.639271 0 0 0 -0.05478,-0.400492 18.639271,18.639271 0 0 0 -0.06356,-0.399976 18.639271,18.639271 0 0 0 -0.07235,-0.397909 18.639271,18.639271 0 0 0 -0.08113,-0.396358 18.639271,18.639271 0 0 0 -0.0894,-0.394808 18.639271,18.639271 0 0 0 -0.09819,-0.392741 18.639271,18.639271 0 0 0 -0.106453,-0.390157 18.639271,18.639271 0 0 0 -0.115239,-0.38809 18.639271,18.639271 0 0 0 -0.123506,-0.385506 18.639271,18.639271 0 0 0 -0.131258,-0.382405 18.639271,18.639271 0 0 0 -0.140043,-0.379822 18.639271,18.639271 0 0 0 -0.148312,-0.376205 18.639271,18.639271 0 0 0 -0.156579,-0.373104 18.639271,18.639271 0 0 0 -0.164331,-0.370003 18.639271,18.639271 0 0 0 -0.1726,-0.365869 A 18.639271,18.639271 0 0 0 65.989752,25.49147 18.639271,18.639271 0 0 0 65.801668,25.13335 18.639271,18.639271 0 0 0 65.605815,24.778849 18.639271,18.639271 0 0 0 65.402209,24.429517 18.639271,18.639271 0 0 0 65.19137,24.084318 18.639271,18.639271 0 0 0 64.972778,23.74377 18.639271,18.639271 0 0 0 64.746952,23.407874 18.639271,18.639271 0 0 0 64.513892,23.077144 18.639271,18.639271 0 0 0 64.273596,22.751583 18.639271,18.639271 0 0 0 64.026583,22.431189 18.639271,18.639271 0 0 0 63.772335,22.115963 18.639271,18.639271 0 0 0 63.511369,21.806938 18.639271,18.639271 0 0 0 63.243685,21.50308 18.639271,18.639271 0 0 0 62.9698,21.205424 18.639271,18.639271 0 0 0 62.689197,20.913969 18.639271,18.639271 0 0 0 62.402393,20.628198 18.639271,18.639271 0 0 0 62.109387,20.349146 18.639271,18.639271 0 0 0 61.810697,20.076294 18.639271,18.639271 0 0 0 61.505806,19.81016 Z"
           style="fill:none;stroke:#c2dcff;stroke-width:2;stroke-linecap:square;stroke-linejoin:round;stroke-dasharray:none;stroke-opacity:1"
           id="path8" />
        <path
           d="m 61.600374,26.902234 a 14.107161,14.107161 0 0 1 0.273369,0.483691 14.107161,14.107161 0 0 1 0.339514,0.684713 14.107161,14.107161 0 0 1 0.30179,0.701766 14.107161,14.107161 0 0 1 0.26355,0.717269 14.107161,14.107161 0 0 1 0.224276,0.730188 14.107161,14.107161 0 0 1 0.184485,0.741557 14.107161,14.107161 0 0 1 0.144177,0.750341 14.107161,14.107161 0 0 1 0.102836,0.75706 14.107161,14.107161 0 0 1 0.06201,0.761194 14.107161,14.107161 0 0 1 0.02067,0.763778 14.107161,14.107161 0 0 1 -0.173633,2.2071 14.107161,14.107161 0 0 1 -0.516764,2.152324 14.107161,14.107161 0 0 1 -0.846977,2.045353 14.107161,14.107161 0 0 1 -0.199987,0.326595 l 8.019665,4.188891 a 23.109167,23.109167 0 0 0 0.253731,-0.499711 23.109167,23.109167 0 0 0 0.240813,-0.505395 23.109167,23.109167 0 0 0 0.228926,-0.511597 23.109167,23.109167 0 0 0 0.216524,-0.516764 23.109167,23.109167 0 0 0 0.203606,-0.521932 23.109167,23.109167 0 0 0 0.191202,-0.526583 23.109167,23.109167 0 0 0 0.178284,-0.531234 23.109167,23.109167 0 0 0 0.165365,-0.535368 23.109167,23.109167 0 0 0 0.152445,-0.538985 23.109167,23.109167 0 0 0 0.13901,-0.543119 23.109167,23.109167 0 0 0 0.12609,-0.545703 23.109167,23.109167 0 0 0 0.112655,-0.548804 23.109167,23.109167 0 0 0 0.09922,-0.551387 23.109167,23.109167 0 0 0 0.08578,-0.553972 23.109167,23.109167 0 0 0 0.07286,-0.555521 23.109167,23.109167 0 0 0 0.05891,-0.557072 23.109167,23.109167 0 0 0 0.04548,-0.558106 23.109167,23.109167 0 0 0 0.03204,-0.559656 23.109167,23.109167 0 0 0 0.0186,-0.560172 23.109167,23.109167 0 0 0 0.0046,-0.560173 23.109167,23.109167 0 0 0 -0.0088,-0.560172 23.109167,23.109167 0 0 0 -0.02222,-0.559656 23.109167,23.109167 0 0 0 -0.03617,-0.559139 23.109167,23.109167 0 0 0 -0.04961,-0.558105 23.109167,23.109167 0 0 0 -0.06253,-0.556556 23.109167,23.109167 0 0 0 -0.07648,-0.555521 23.109167,23.109167 0 0 0 -0.08992,-0.552938 23.109167,23.109167 0 0 0 -0.103353,-0.550354 23.109167,23.109167 0 0 0 -0.116789,-0.548287 23.109167,23.109167 0 0 0 -0.129707,-0.545186 23.109167,23.109167 0 0 0 -0.143144,-0.541569 23.109167,23.109167 0 0 0 -0.156063,-0.537952 23.109167,23.109167 0 0 0 -0.168982,-0.534334 23.109167,23.109167 0 0 0 -0.181901,-0.529684 23.109167,23.109167 0 0 0 -0.19482,-0.525549 23.109167,23.109167 0 0 0 -0.207739,-0.520382 23.109167,23.109167 0 0 0 -0.220142,-0.515214 23.109167,23.109167 0 0 0 -0.232544,-0.510046 23.109167,23.109167 0 0 0 -0.244429,-0.503845 23.109167,23.109167 0 0 0 -0.256832,-0.497644 23.109167,23.109167 0 0 0 -0.269234,-0.49196 23.109167,23.109167 0 0 0 -0.280603,-0.484725 z"
           style="fill:none;fill-opacity:0;stroke:#c2dcff;stroke-width:2;stroke-linecap:square;stroke-linejoin:round;stroke-dasharray:none;stroke-opacity:1"
           id="path13" />
        <path
           style="fill:none;stroke:#c2dcff;stroke-width:2;stroke-linecap:square;stroke-linejoin:round;stroke-dasharray:none;stroke-opacity:1"
           d="m 63.395655,35.866525 8.494705,1.730404"
           id="path10" />
        <path
           style="fill:none;stroke:#c2dcff;stroke-width:2;stroke-linecap:square;stroke-linejoin:round;stroke-dasharray:none;stroke-opacity:1"
           d="m 63.395655,31.304555 8.337397,-1.573093"
           id="path11" />
      </g>
      <path
         style="fill:none;stroke:#c2dcff;stroke-width:2;stroke-linecap:round;stroke-linejoin:round;stroke-dasharray:none;stroke-opacity:1"
         id="path12"
         sodipodi:type="arc"
         sodipodi:cx="49.237816"
         sodipodi:cy="33.978817"
         sodipodi:rx="17.230442"
         sodipodi:ry="17.230442"
         sodipodi:start="4.0660296"
         sodipodi:end="4.2294201"
         sodipodi:arc-type="arc"
         d="m 38.860193,20.224069 a 17.230442,17.230442 0 0 1 2.375624,-1.504877"
         sodipodi:open="true" />
      <path
         style="fill:none;stroke:#c2dcff;stroke-width:2;stroke-linecap:round;stroke-linejoin:round;stroke-dasharray:none;stroke-opacity:1"
         id="path12-1"
         sodipodi:type="arc"
         sodipodi:cx="49.205894"
         sodipodi:cy="34.057484"
         sodipodi:rx="17.230442"
         sodipodi:ry="17.230442"
         sodipodi:start="3.0382093"
         sodipodi:end="3.3111615"
         sodipodi:arc-type="arc"
         d="m 32.067451,35.835653 a 17.230442,17.230442 0 0 1 0.155127,-4.685934"
         sodipodi:open="true" />
      <path
         style="fill:none;stroke:#c2dcff;stroke-width:2;stroke-linecap:round;stroke-linejoin:round;stroke-dasharray:none;stroke-opacity:1"
         id="path12-18"
         sodipodi:type="arc"
         sodipodi:cx="49.193039"
         sodipodi:cy="33.944946"
         sodipodi:rx="17.230442"
         sodipodi:ry="17.230442"
         sodipodi:start="2.6616567"
         sodipodi:end="2.7961599"
         sodipodi:arc-type="arc"
         d="M 33.909215,41.900627 A 17.230442,17.230442 0 0 1 32.980416,39.779241"
         sodipodi:open="true" />
      <ellipse
         style="fill:none;stroke:#6dabff;stroke-width:2;stroke-linecap:square;stroke-linejoin:round;stroke-dasharray:none;stroke-opacity:1"
         id="path2"
         cx="49.395134"
         cy="33.978809"
         rx="3.3404157"
         ry="14.090416" />
      <ellipse
         style="fill:none;stroke:#6dabff;stroke-width:2;stroke-linecap:square;stroke-linejoin:round;stroke-dasharray:none;stroke-opacity:1"
         id="path2-9"
         cx="49.395134"
         cy="33.978809"
         rx="9.2733812"
         ry="13.919784" />
      <path
         style="fill:none;stroke:#6dabff;stroke-width:2;stroke-linecap:square;stroke-linejoin:round;stroke-dasharray:none;stroke-opacity:1"
         d="M 35.380957,33.97881 H 63.409311"
         id="path3" />
      <path
         style="fill:none;stroke:#6dabff;stroke-width:2;stroke-linecap:square;stroke-linejoin:round;stroke-dasharray:none;stroke-opacity:1"
         d="m 37.099233,40.51518 h 24.42859"
         id="path4" />
      <path
         style="fill:none;stroke:#6dabff;stroke-width:1.96396;stroke-linecap:square;stroke-linejoin:round;stroke-dasharray:none;stroke-opacity:1"
         d="m 37.220909,27.245583 h 23.55617"
         id="path4-4" />
      <circle
         style="fill:none;fill-opacity:0;stroke:#6dabff;stroke-width:2.2;stroke-linecap:square;stroke-linejoin:round;stroke-dasharray:none;stroke-opacity:1"
         id="path1"
         cx="49.395226"
         cy="33.979225"
         r="14.233227" />
    </g>
  </g>
</svg>
